
<svg version="1.1" id="Layer_1" xmlns="http://www.w3.org/2000/svg" xmlns:xlink="http://www.w3.org/1999/xlink" x="0px" y="0px"
	 width="500px" height="500px" viewBox="0 0 500 500" enable-background="new 0 0 500 500" xml:space="preserve">
<path fill="#000000" d="M113.414,166.199c3.57-5.86,3.639-14.906,6.19-21.3c2.703-6.782,7.532-14.42,12.799-19.537
	c6.252-6.073,12.075-6.336,10.851,4.227c-1.081,9.329-3.058,18.572,2.517,26.991c3.691,5.576,17.319,7.78,23.295,5.742
	c5.038-1.718,13.373-8.862,17.21-12.823c5.818-6.006,4.765-16.353,7.794-23.813c2.916-7.181,7.224-17.117,11.916-23.289
	c2.717-3.574,4.094-13.977,8.411-15.241c5.636-1.65,12.954,1.071,12.906-7.607c-0.047-8.508-0.584-16.481,3.494-24.305
	c4.31-8.264,17.808-3.123,25.343-2.742c8.042,0.406,18.264-3.334,25.233,2.125c6.185,4.845,14.113,6.546,21.332,9.124
	c6.818,2.432,14.441,4.181,21.643,5.146c9.438,1.263,20.547-7.657,28.064-12.474c6.586-4.221,12.341-9.893,20.093-11.94
	c7.852-2.074,14.968-1.533,21.758-6.754c5.87-4.514,9.889-11.547,16.427-15.156c8.104-4.473,5.893,7.79,3.986,11.305
	c-8.412,15.511-19.644,22.998-13.817,41.53c3.67,11.676-24.45,12.667-20.501,29.77c4.276,18.516-23.371,21.121-25.2,37.634
	c-0.759,6.852-0.24,10.483-7.362,12.625c-8.999,2.703-15.477-4.262-21.229,5.854c-9.243,16.271-11.494,30.109-30.178,38.465
	c-14.146,6.327-26.315,25.283-15.568,38.395c4.415,5.387,8.549,10.703,15.208,13.692c7.515,3.374,16.786,1.854,23.804,6.096
	c6.083,3.676,12.097,11.079,18.575,3.134c3.767-4.619,16.79,6.276,21.477,8.385c7.366,3.314,11.304-1.171,16.964,6.017
	c3.545,4.501,7.594,6.868,6.552,13.404c-1.204,7.545-9.955,1.644-12.974-1.159c-7.456-6.926-16.876,2.75-25.812-0.857
	c-5.876-2.372-13.827-3.131-14.445,5.376c-0.485,6.683-11.469,10.173-16.772,11.24c-7.627,1.534-14.898-2.571-22.271,0.526
	c-7.213,3.03-13.117,14.225-8.417,21.302c2.946,4.439,13.037,3.338,13.659,9.366c0.746,7.231,10.033,3.665,12.004,8.955
	c1.97,5.285-2.923,13.639-2.755,19.477c0.127,4.384-2.107,5.494-6.009,6.295c-4.785,0.982-5.604,4.536-9.24,6.127
	c-3.071,1.346-12.699-10.856-12.728-0.088c-0.007,2.495-1.688,6.922-0.996,9.278c0.754,2.564,3.348,3.89,2.49,6.924
	c-1.793,6.377,1.241,6.554,7.786,8.497c4.148,1.231,6.84,10.787,1.818,12.412c-7.67,2.482-3.838-7.788-9.993-8.529
	c-7.331-0.888-14.454,6.139-22.642,5.82c-10.438-0.408-10.095,11.288-11.949,18.759c-2.838,11.436-1.264,13.329,4.497,21.95
	c8.932,13.337-17.09,15.815-25.841,18.224c-3.614,0.995-4.995-1.811-8.313-2.109c-2.933-0.264-5.828,1.714-8.385,2.841
	c-5.004,2.205-4.774,6.039-10.886,8.373c-7.449,2.844-6.57-9.091-7.61-12.852c-2.138-7.725-9.535-12.122-11.894-19.609
	c-5.236-16.637-14.328-31.843-19.966-48.423c-4.514-13.286-8.878-26.723-14.224-39.713c-5.484-13.327-22.83-22.635-34.19-30.489
	c-15.003-10.372-12.273-19.642-11.633-35.86c0.222-5.627-0.197-12.558,3.438-17.306c4.478-5.851,11.087-3.563,7.922-13.249
	c-1.721-5.267-6.755-4.516-8.549-8.412c-2.231-4.839,3.891-13.333,6.279-16.976c4.037-6.16,6.919-10.95,7.108-18.419
	c0.198-7.866,9.68-10.067,1.674-17.389c-5.416-4.953-12.605-5.387-18.882-8.615c-0.866-0.445-16.624-9.308-11.003-11.097
	c2.077-0.204,4.043,0.175,5.896,1.136c2.658,0.934,3.971-2.359,5.821-3.646C100.947,173.108,109.425,172.732,113.414,166.199
	C114.314,164.721,112.202,168.184,113.414,166.199z"/>
</svg>
